<svg width="210mm" height="297mm" version="1.1" viewBox="0 0 210 297" xmlns="http://www.w3.org/2000/svg">
 <g transform="matrix(.26458 0 0 .26458 .015682 -.36068)" fill="#0e0e11" style="shape-inside:url(#rect63);white-space:pre" aria-label="A">
  <path d="m151.07 334.36h-10.254l-1.7969 4.1797c-0.44271 1.0286-0.66406 1.7969-0.66406 2.3047 0 0.40364 0.1888 0.76171 0.56641 1.0742 0.39063 0.29948 1.224 0.49479 2.5 0.58594v0.72266h-8.3398v-0.72266c1.1068-0.19531 1.8229-0.44922 2.1484-0.76172 0.66407-0.625 1.3997-1.8945 2.207-3.8086l9.3164-21.797h0.68359l9.2188 22.031c0.74219 1.7708 0.88151 3.1263 1.4805 3.6602 0.61198 0.52083-0.40105 0.61067 0.67968 0.67577v0.72266l-4.0767 0.0234c-0.95071-2.2306-1.2683-3.0142-2.0678-5.082zm-0.54688-1.4453-4.4922-10.703-4.6094 10.703z" fill="#d8e9ef"/>
 </g>
 <g transform="matrix(.78084 0 0 1.0023 8.4701 -.19246)" fill="#0e0e11" stroke-width=".26458" aria-label="B">
  <path d="m44.631 86.864c0.48576 0.10335 0.84921 0.26872 1.0904 0.49609 0.33417 0.31695 0.50126 0.70452 0.50126 1.1627 0 0.34795-0.11024 0.68213-0.33073 1.0025-0.22048 0.31695-0.52365 0.54949-0.9095 0.69763-0.3824 0.14469-0.9694 0.21167-1.7583 0.21395l-1.4222 0.0041c0.042-0.14589-0.65523-1.0291-0.81269-1.2454l-2.3007-4.5384c-0.19663-0.38787 0.34398-0.71538 0.24407-0.82907-0.13436-0.15158 0.2812-0.33717 0.01618-0.3487l-0.09508-0.0041 0.1797-0.1912h3.9306c0.56499 0 1.018 0.04134 1.3591 0.12402 0.51676 0.12402 0.91122 0.34451 1.1834 0.66146 0.27216 0.3135 0.39067 0.82379 0.39067 1.2338 0 0.3514-0.1068 0.66662-0.32039 0.94568-0.2136 0.27561-0.52882 0.48059-0.94568 0.61495zm-4.7151-0.27905c0.12747 0.02411 0.27216 0.04306 0.43408 0.05684 0.16536 0.01033 2.3535 0.0155 2.5499 0.0155 0.50298 0 0.88022-0.0534 1.1317-0.1602 0.25494-0.11024 0.44958-0.27733 0.58394-0.50126 0.13436-0.22393 0.20154-0.46853 0.20154-0.7338 0-0.40996-0.14952-0.90819-0.48369-1.1976s-0.82165-0.43408-1.4624-0.43408c-0.34451 0-3.5465-0.06775-3.8221 8e-3zm2.0073 3.3486c0.39963 0.09302 0.79409 0.13952 1.1834 0.13952 0.62356 0 1.099-0.13953 1.4263-0.41858 0.32728-0.2825 0.49092-0.63045 0.49092-1.0439 0-0.27216-0.07407-0.53399-0.22221-0.78548-0.14814-0.25149-0.3893-0.44958-0.72347-0.59428-0.33417-0.14469-0.74758-0.21704-1.2402-0.21704-0.2136 0-2.4035 0.0034-2.555 0.01034-0.15158 0.0069-0.27388 0.01894-0.3669 0.03617z" fill="#d8e9ef"/>
 </g>
 <path d="m38.407 84.302 0.43828-1.0198 0.17935 6.39e-4 3.0065 7.1716-1.0728 0.0058z" fill="#4ea1d3" stroke-width=".26458"/>
</svg>
